# xmcd
#
# Track frame offsets:
#	150
#	10528
#	20753
#	31699
#	41454
#	51009
#	59394
#	68440
#	80520
#	90698
#	102929
#	113566
#
# Disc length: 1629 seconds
#
# Revision: 1
# Processed by: cddbd v1.5.2PL0 Copyright (c) Steve Scherf et al.
# Submitted via: audiograbber 1.83.01
#
DISCID=84065b0c
DTITLE=Fats Domino - Walkin' To New Orleans
DYEAR=1963
DGENRE=Blues/Rock&Roll
TTITLE0=How Can I Be Happy
TTITLE1=One Of These Days
TTITLE2=So Glad
TTITLE3=Oh Where
TTITLE4=Sailor Boy
TTITLE5=Lazy Woman
TTITLE6=Walking To New Orleans
TTITLE7=My Love For Her
TTITLE8=What's Wrong
TTITLE9=Little Mama
TTITLE10=I'll Guess I'll Be On My Way
TTITLE11=Goin' Back Home
EXTD=
EXTT0=
EXTT1=
EXTT2=
EXTT3=
EXTT4=
EXTT5=
EXTT6=
EXTT7=
EXTT8=
EXTT9=
EXTT10=
EXTT11=
PLAYORDER=
